<?xml version="1.0" encoding="UTF-8" standalone="no"?>
<!-- Created with Inkscape (http://www.inkscape.org/) -->

<svg
   xmlns:dc="http://purl.org/dc/elements/1.1/"
   xmlns:cc="http://creativecommons.org/ns#"
   xmlns:rdf="http://www.w3.org/1999/02/22-rdf-syntax-ns#"
   xmlns:svg="http://www.w3.org/2000/svg"
   xmlns="http://www.w3.org/2000/svg"
   xmlns:sodipodi="http://sodipodi.sourceforge.net/DTD/sodipodi-0.dtd"
   xmlns:inkscape="http://www.inkscape.org/namespaces/inkscape"
   width="210mm"
   height="297mm"
   viewBox="0 0 210 297"
   version="1.1"
   id="svg8"
   inkscape:version="0.92.4 (5da689c313, 2019-01-14)"
   sodipodi:docname="logo.svg">
  <defs
     id="defs2" />
  <sodipodi:namedview
     id="base"
     pagecolor="#ffffff"
     bordercolor="#666666"
     borderopacity="1.0"
     inkscape:pageopacity="0.0"
     inkscape:pageshadow="2"
     inkscape:zoom="0.49497475"
     inkscape:cx="392.73464"
     inkscape:cy="351.34831"
     inkscape:document-units="mm"
     inkscape:current-layer="layer1"
     showgrid="false"
     inkscape:window-width="1920"
     inkscape:window-height="1040"
     inkscape:window-x="1920"
     inkscape:window-y="20"
     inkscape:window-maximized="1"
     inkscape:snap-bbox="true"
     inkscape:snap-bbox-midpoints="true" />
  <metadata
     id="metadata5">
    <rdf:RDF>
      <cc:Work
         rdf:about="">
        <dc:format>image/svg+xml</dc:format>
        <dc:type
           rdf:resource="http://purl.org/dc/dcmitype/StillImage" />
        <dc:title></dc:title>
      </cc:Work>
    </rdf:RDF>
  </metadata>
  <g
     inkscape:label="Layer 1"
     inkscape:groupmode="layer"
     id="layer1">
    <rect
       style="opacity:1;vector-effect:none;fill:#333333;fill-opacity:1;stroke:none;stroke-width:1;stroke-linecap:butt;stroke-linejoin:miter;stroke-miterlimit:4;stroke-dasharray:none;stroke-dashoffset:3.77952766;stroke-opacity:1;paint-order:markers fill stroke"
       id="rect815"
       width="192.209"
       height="113.72767"
       x="8.7763424"
       y="17.808487" />
    <rect
       style="opacity:1;vector-effect:none;fill:#eeeeee;fill-opacity:1;stroke:none;stroke-width:1;stroke-linecap:butt;stroke-linejoin:miter;stroke-miterlimit:4;stroke-dasharray:none;stroke-dashoffset:3.77952766;stroke-opacity:1;paint-order:markers fill stroke"
       id="rect823"
       width="50.339615"
       height="16.142269"
       x="23.046377"
       y="30.038103" />
    <text
       xml:space="preserve"
       style="font-style:normal;font-weight:normal;font-size:12.38596535px;line-height:7.74122858px;font-family:sans-serif;letter-spacing:0px;word-spacing:0px;fill:#333333;fill-opacity:1;stroke:none;stroke-width:0.26458332"
       x="25.220499"
       y="46.465649"
       id="text819"><tspan
         sodipodi:role="line"
         id="tspan817"
         x="25.220499"
         y="46.465649"
         style="font-style:normal;font-variant:normal;font-weight:bold;font-stretch:condensed;font-family:'Saira Condensed';-inkscape-font-specification:'Saira Condensed,  Bold Condensed';fill:#333333;fill-opacity:1;stroke-width:0.26458332">DSO Guide</tspan></text>
    <rect
       style="opacity:1;vector-effect:none;fill:#eeeeee;fill-opacity:1;stroke:none;stroke-width:1;stroke-linecap:butt;stroke-linejoin:miter;stroke-miterlimit:4;stroke-dasharray:none;stroke-dashoffset:3.77952766;stroke-opacity:1;paint-order:markers fill stroke"
       id="rect823-3"
       width="49.136902"
       height="15.875"
       x="92.790688"
       y="29.212408" />
    <text
       xml:space="preserve"
       style="font-style:normal;font-weight:normal;font-size:14.49721336px;line-height:9.06075859px;font-family:sans-serif;letter-spacing:0px;word-spacing:0px;fill:#333333;fill-opacity:1;stroke:none;stroke-width:0.26458332"
       x="94.874023"
       y="45.188744"
       id="text819-6"><tspan
         sodipodi:role="line"
         id="tspan817-7"
         x="94.874023"
         y="45.188744"
         style="font-style:normal;font-variant:normal;font-weight:bold;font-stretch:normal;font-family:'Saira ExtraCondensed';-inkscape-font-specification:'Saira ExtraCondensed,  Bold';fill:#333333;fill-opacity:1;stroke-width:0.26458332">DSO Guide</tspan></text>
    <rect
       style="opacity:1;vector-effect:none;fill:#eeeeee;fill-opacity:1;stroke:none;stroke-width:1;stroke-linecap:butt;stroke-linejoin:miter;stroke-miterlimit:4;stroke-dasharray:none;stroke-dashoffset:3.77952766;stroke-opacity:1;paint-order:markers fill stroke"
       id="rect823-5"
       width="13.373698"
       height="4.2885075"
       x="60.012295"
       y="23.632927" />
    <rect
       style="opacity:1;vector-effect:none;fill:#eeeeee;fill-opacity:1;stroke:none;stroke-width:1;stroke-linecap:butt;stroke-linejoin:miter;stroke-miterlimit:4;stroke-dasharray:none;stroke-dashoffset:3.77952766;stroke-opacity:1;paint-order:markers fill stroke"
       id="rect823-5-3"
       width="13.373698"
       height="4.2885075"
       x="128.55388"
       y="22.807232" />
    <rect
       style="opacity:1;vector-effect:none;fill:#333333;fill-opacity:1;stroke:none;stroke-width:1;stroke-linecap:butt;stroke-linejoin:miter;stroke-miterlimit:4;stroke-dasharray:none;stroke-dashoffset:3.77952766;stroke-opacity:1;paint-order:markers fill stroke"
       id="rect815-2"
       width="46.792767"
       height="46.792767"
       x="54.217243"
       y="134.09731"
       inkscape:export-filename="/home/mbernardi/documents/repos/javascript/dso-guide/app/www/thumbnail-32x32.png"
       inkscape:export-xdpi="17.370205"
       inkscape:export-ydpi="17.370205" />
    <g
       id="g1017"
       transform="translate(0.16580587,4.7441554)">
      <rect
         transform="rotate(-6)"
         y="155.10472"
         x="43.444397"
         height="16.142269"
         width="34.559109"
         id="rect823-56"
         style="opacity:1;vector-effect:none;fill:#eeeeee;fill-opacity:1;stroke:none;stroke-width:1;stroke-linecap:butt;stroke-linejoin:miter;stroke-miterlimit:4;stroke-dasharray:none;stroke-dashoffset:3.77952766;stroke-opacity:1;paint-order:markers fill stroke" />
      <rect
         transform="rotate(-6)"
         y="148.69954"
         x="64.629807"
         height="4.2885075"
         width="13.373698"
         id="rect823-5-1"
         style="opacity:1;vector-effect:none;fill:#eeeeee;fill-opacity:1;stroke:none;stroke-width:1;stroke-linecap:butt;stroke-linejoin:miter;stroke-miterlimit:4;stroke-dasharray:none;stroke-dashoffset:3.77952766;stroke-opacity:1;paint-order:markers fill stroke" />
    </g>
    <rect
       style="opacity:1;vector-effect:none;fill:#eeeeee;fill-opacity:1;stroke:none;stroke-width:1;stroke-linecap:butt;stroke-linejoin:miter;stroke-miterlimit:4;stroke-dasharray:none;stroke-dashoffset:3.77952766;stroke-opacity:1;paint-order:markers fill stroke"
       id="rect823-7"
       width="50.339615"
       height="16.142269"
       x="17.942627"
       y="69.200188"
       transform="rotate(-6)" />
    <text
       xml:space="preserve"
       style="font-style:normal;font-weight:normal;font-size:12.38596535px;line-height:7.74122858px;font-family:sans-serif;letter-spacing:0px;word-spacing:0px;fill:#333333;fill-opacity:1;stroke:none;stroke-width:0.26458332"
       x="20.116749"
       y="85.627731"
       id="text819-0"
       transform="rotate(-6)"><tspan
         sodipodi:role="line"
         id="tspan817-9"
         x="20.116749"
         y="85.627731"
         style="font-style:normal;font-variant:normal;font-weight:bold;font-stretch:condensed;font-family:'Saira Condensed';-inkscape-font-specification:'Saira Condensed,  Bold Condensed';fill:#333333;fill-opacity:1;stroke-width:0.26458332">DSO Guide</tspan></text>
    <rect
       style="opacity:1;vector-effect:none;fill:#eeeeee;fill-opacity:1;stroke:none;stroke-width:1;stroke-linecap:butt;stroke-linejoin:miter;stroke-miterlimit:4;stroke-dasharray:none;stroke-dashoffset:3.77952766;stroke-opacity:1;paint-order:markers fill stroke"
       id="rect823-5-36"
       width="13.373698"
       height="4.2885075"
       x="54.908535"
       y="62.79501"
       transform="rotate(-6)" />
    <rect
       style="opacity:1;vector-effect:none;fill:#eeeeee;fill-opacity:1;stroke:none;stroke-width:1;stroke-linecap:butt;stroke-linejoin:miter;stroke-miterlimit:4;stroke-dasharray:none;stroke-dashoffset:3.77952766;stroke-opacity:1;paint-order:markers fill stroke"
       id="rect823-3-0"
       width="49.136902"
       height="15.875"
       x="78.056168"
       y="78.1427"
       transform="rotate(-6)" />
    <text
       xml:space="preserve"
       style="font-style:normal;font-weight:normal;font-size:14.49721336px;line-height:9.06075859px;font-family:sans-serif;letter-spacing:0px;word-spacing:0px;fill:#333333;fill-opacity:1;stroke:none;stroke-width:0.26458332"
       x="80.139496"
       y="94.119041"
       id="text819-6-6"
       transform="rotate(-6)"><tspan
         sodipodi:role="line"
         id="tspan817-7-2"
         x="80.139496"
         y="94.119041"
         style="font-style:normal;font-variant:normal;font-weight:bold;font-stretch:normal;font-family:'Saira ExtraCondensed';-inkscape-font-specification:'Saira ExtraCondensed,  Bold';fill:#333333;fill-opacity:1;stroke-width:0.26458332">DSO Guide</tspan></text>
    <rect
       style="opacity:1;vector-effect:none;fill:#eeeeee;fill-opacity:1;stroke:none;stroke-width:1;stroke-linecap:butt;stroke-linejoin:miter;stroke-miterlimit:4;stroke-dasharray:none;stroke-dashoffset:3.77952766;stroke-opacity:1;paint-order:markers fill stroke"
       id="rect823-5-3-6"
       width="13.373698"
       height="4.2885075"
       x="113.81937"
       y="71.737526"
       transform="rotate(-6)" />
    <rect
       style="opacity:1;vector-effect:none;fill:#eeeeee;fill-opacity:1;stroke:none;stroke-width:1;stroke-linecap:butt;stroke-linejoin:miter;stroke-miterlimit:4;stroke-dasharray:none;stroke-dashoffset:3.77952766;stroke-opacity:1;paint-order:markers fill stroke"
       id="rect823-56-7"
       width="34.559113"
       height="16.142269"
       x="161.13998"
       y="56.360065" />
    <rect
       style="opacity:1;vector-effect:none;fill:#eeeeee;fill-opacity:1;stroke:none;stroke-width:1;stroke-linecap:butt;stroke-linejoin:miter;stroke-miterlimit:4;stroke-dasharray:none;stroke-dashoffset:3.77952766;stroke-opacity:1;paint-order:markers fill stroke"
       id="rect823-5-1-9"
       width="13.373698"
       height="4.2885075"
       x="182.32539"
       y="49.954884" />
    <path
       style="opacity:1;vector-effect:none;fill:#eeeeee;fill-opacity:1;stroke:none;stroke-width:3.77952766;stroke-linecap:butt;stroke-linejoin:miter;stroke-miterlimit:4;stroke-dasharray:none;stroke-dashoffset:3.77952766;stroke-opacity:1;paint-order:markers fill stroke"
       d="M 286.78906 371.00586 L 97.572266 390.89453 L 103.94922 451.57031 L 114.54102 450.45703 L 111.28906 419.49805 L 119.94727 418.58789 C 123.23727 418.24209 125.63043 418.46174 127.125 419.24609 C 128.64734 419.9961 129.68742 421.37607 130.24414 423.38867 C 130.7976 425.37025 131.32379 428.75143 131.82617 433.53125 C 132.32855 438.31107 132.51674 441.74381 132.39062 443.82812 C 132.26131 445.88147 131.53298 447.4481 130.20312 448.5293 C 130.06064 448.64391 129.90068 448.75317 129.73438 448.85938 L 137.17383 448.07812 L 136.69336 443.51758 C 139.88531 443.43317 142.0864 443.32646 143.29688 443.19922 C 144.38314 443.08508 145.20045 442.93671 145.74609 442.75391 C 146.29173 442.57123 146.68688 442.31063 146.93359 441.9707 C 147.1558 441.69628 147.27461 441.3375 147.29102 440.89648 C 147.33521 440.42112 147.31465 439.76573 147.22656 438.92773 C 147.10587 437.77934 146.95824 436.97793 146.78516 436.52539 C 146.6088 436.04184 146.30718 435.71198 145.88086 435.53711 C 145.48231 435.32798 144.79229 435.18082 143.81055 435.0957 L 139.35156 434.76562 C 137.77031 434.64953 136.60892 433.90686 135.86914 432.54102 C 135.12936 431.17525 134.6178 429.14363 134.33398 426.44336 C 134.0567 423.80515 134.2183 421.74844 134.81641 420.27344 C 135.44555 418.79519 136.40117 417.73651 137.68359 417.09961 C 138.96602 416.46276 140.6312 416.03757 142.67969 415.82227 C 144.10743 415.67209 145.48349 415.62054 146.80664 415.66992 C 148.16084 415.71578 149.26545 415.78845 150.12305 415.88672 L 150.67188 421.10156 C 148.96648 420.99826 147.07367 421.05668 144.99414 421.27539 C 143.87678 421.39281 143.0133 421.52904 142.40234 421.6875 C 141.82242 421.84271 141.4056 422.06035 141.15234 422.33789 C 140.83703 422.62211 140.65747 423.00125 140.61328 423.47656 C 140.56909 423.95193 140.59289 424.63898 140.6875 425.53906 C 140.78864 426.50125 140.91004 427.19635 141.04883 427.62109 C 141.21863 428.04259 141.45302 428.33143 141.75195 428.48828 C 142.05086 428.64501 142.54826 428.74837 143.24414 428.80078 L 147.41797 429.11523 C 148.5206 429.15605 149.47307 429.40203 150.27344 429.85156 C 151.10157 430.26658 151.79502 431.04005 152.35352 432.17383 C 152.91853 433.36967 153.32045 435.10144 153.55859 437.36719 C 153.8685 440.31577 153.74479 442.57187 153.1875 444.13672 C 152.83432 445.12842 152.34605 445.93048 151.72656 446.54688 L 160.68359 445.60547 C 159.25488 444.78061 158.26383 443.36419 157.71289 441.35352 C 157.14964 439.27883 156.61242 435.82235 156.10352 430.98047 C 155.59135 426.10752 155.39668 422.61347 155.51953 420.49805 C 155.64237 418.38265 156.33766 416.78756 157.60547 415.71289 C 158.87 414.60718 161.11777 413.88417 164.3457 413.54492 C 167.57363 413.20565 169.91993 413.44505 171.38672 414.26367 C 172.85025 415.05128 173.86189 416.46612 174.42188 418.50977 C 174.98181 420.55341 175.51908 424.01182 176.03125 428.88477 C 176.54015 433.72664 176.73482 437.22072 176.61523 439.36719 C 176.49433 441.44934 175.81683 443.0406 174.58984 444.14453 L 193.16602 442.19141 C 191.74948 441.41092 190.65716 439.9785 189.89844 437.87695 C 189.12939 435.63564 188.50429 432.21859 188.02148 427.625 C 187.54194 423.06243 187.46265 419.61938 187.7832 417.29492 C 188.13152 414.93614 189.01711 413.22597 190.44336 412.16602 C 191.86961 411.10608 194.10478 410.41735 197.14648 410.09766 C 198.388 409.96714 199.74822 409.91842 201.22656 409.95117 C 202.70491 409.98418 203.96919 410.07034 205.01953 410.21094 L 205.57227 415.4707 C 202.86387 415.37873 200.90383 415.39815 199.69336 415.52539 C 197.58279 415.74712 196.14219 416.06974 195.37109 416.49609 C 194.63103 416.91905 194.1818 417.86191 194.02148 419.32227 C 193.88895 420.74833 194.0135 423.29262 194.39844 426.95508 C 194.75728 430.36923 195.10773 432.79516 195.44727 434.23438 C 195.78356 435.64249 196.24048 436.56667 196.82031 437.00781 C 197.43118 437.44568 198.38977 437.596 199.69336 437.45898 C 199.9727 437.4295 200.71143 437.30616 201.91211 437.08594 L 201.08008 429.16992 L 198.19336 429.47461 L 197.61719 423.98047 L 206.41602 423.05664 L 208.26172 440.60547 L 213.81641 440.02148 C 213.3128 439.52357 212.91116 438.86397 212.61914 438.03125 C 212.24361 436.84685 211.94448 435.20038 211.72266 433.08984 L 210.08398 417.49219 L 216.08984 416.86133 L 217.43945 429.71094 C 217.64823 431.69736 217.83835 433.05785 218.00977 433.79297 C 218.18118 434.52809 218.41853 434.98982 218.7207 435.17773 C 219.05065 435.33144 219.60296 435.36679 220.37891 435.28516 C 221.15485 435.20352 221.68123 434.99137 221.95898 434.64844 C 222.26778 434.30218 222.42465 433.70522 222.42969 432.85742 C 222.43146 431.97856 222.32728 430.53111 222.11523 428.51367 L 220.83789 416.36133 L 226.84375 415.73047 L 229.22656 438.40234 L 233.47266 437.95508 L 231.08984 415.28516 L 237.0957 414.65234 L 239.47852 437.32422 L 245.17383 436.72461 C 244.46297 436.05404 243.86872 435.0345 243.40625 433.61914 C 242.85111 431.92017 242.40308 429.4406 242.06055 426.18164 C 241.72454 422.98474 241.63424 420.49859 241.79297 418.72461 C 241.95171 416.9506 242.41215 415.64744 243.17188 414.81445 C 243.92833 413.95043 245.08288 413.43654 246.63477 413.27344 C 247.84524 413.14619 248.87846 413.27355 249.73438 413.6543 C 250.59028 414.03505 251.27142 414.70154 251.7793 415.65234 L 252.10547 415.61719 L 250.70117 402.25586 L 256.70703 401.625 L 260.22852 435.14258 L 266.49414 434.48438 C 265.34796 433.76924 264.53816 432.69646 264.07227 431.25781 C 263.56122 429.67973 263.13355 427.26091 262.79102 424.00195 C 262.45501 420.80505 262.37249 418.3664 262.54102 416.68555 C 262.70953 415.00464 263.35417 413.68204 264.47656 412.7168 C 265.5957 411.72051 267.45924 411.08459 270.06641 410.81055 C 272.6115 410.54306 274.48532 410.7538 275.6875 411.44336 C 276.91745 412.0986 277.73963 413.20491 278.1543 414.76172 C 278.60001 416.31528 279.00313 418.81455 279.36523 422.25977 L 279.55664 424.07617 L 268.98828 425.1875 C 269.17423 426.95667 269.38047 428.17334 269.60742 428.83984 C 269.83437 429.50635 270.23879 429.91959 270.82031 430.07812 C 271.40183 430.23661 272.42208 430.23939 273.88086 430.08594 C 275.06029 429.96197 276.94364 429.66918 279.53125 429.20898 L 279.9375 433.07227 L 293.16602 431.68164 L 286.78906 371.00586 z M 236.00195 403.80078 L 236.59961 409.48047 L 230.5 410.12109 L 229.9043 404.44141 L 236.00195 403.80078 z M 271.50586 415.7793 C 271.23633 415.75271 270.91542 415.75769 270.54297 415.79688 C 269.76702 415.87851 269.22093 416.04773 268.90234 416.30078 C 268.6148 416.55073 268.44496 417.02294 268.39258 417.71875 C 268.34022 418.41466 268.39615 419.5538 268.5625 421.13672 L 273.49805 420.61719 C 273.33167 419.03427 273.15099 417.90809 272.95508 417.23828 C 272.7559 416.53748 272.49011 416.11066 272.16016 415.95703 C 271.99355 415.86468 271.77539 415.80588 271.50586 415.7793 z M 250.4043 418.36523 C 250.24727 418.36405 250.08081 418.37193 249.90234 418.39062 C 249.06432 418.47881 248.48718 418.6651 248.17188 418.94922 C 247.8876 419.23016 247.73072 419.82713 247.70117 420.74023 C 247.6994 421.6191 247.81915 423.20711 248.06055 425.50391 C 248.30196 427.8007 248.51737 429.39488 248.70508 430.28516 C 248.92056 431.14117 249.19672 431.67689 249.5332 431.89258 C 249.90072 432.10499 250.50182 432.16606 251.33984 432.07812 C 251.99164 432.0096 252.46246 431.85141 252.75 431.60156 C 253.06858 431.34843 253.27334 430.90273 253.36328 430.26562 C 253.45492 429.34598 253.36193 427.58178 253.08789 424.97461 C 252.82365 422.46057 252.59435 420.869 252.39844 420.19922 C 252.18948 419.40527 251.90008 418.88798 251.5293 418.64453 C 251.25121 418.46198 250.87537 418.36878 250.4043 418.36523 z M 165.79492 419.11914 C 165.53274 419.12512 165.24788 419.14512 164.9375 419.17773 C 163.69599 419.30825 162.87521 419.56803 162.47656 419.95508 C 162.07792 420.34215 161.88622 421.20896 161.90234 422.55664 C 161.91847 423.90432 162.12804 426.48704 162.5293 430.30469 C 162.93055 434.12231 163.26293 436.69207 163.52734 438.01367 C 163.79176 439.33525 164.15849 440.14372 164.62891 440.43945 C 165.09932 440.73521 165.95575 440.81797 167.19727 440.6875 C 168.43877 440.55698 169.25956 440.29723 169.6582 439.91016 C 170.05685 439.52308 170.24855 438.65627 170.23242 437.30859 C 170.2163 435.96092 170.00673 433.37817 169.60547 429.56055 C 169.20422 425.7429 168.87184 423.17314 168.60742 421.85156 C 168.343 420.52996 167.97433 419.72149 167.50391 419.42578 C 167.15109 419.20396 166.58147 419.10121 165.79492 419.11914 z M 121.39062 424.16406 C 121.10329 424.1727 120.78868 424.19458 120.44727 424.23047 L 118.25781 424.46094 L 120.44141 445.22461 L 122.62891 444.99414 C 123.99457 444.85052 124.89525 444.59947 125.32812 444.24023 C 125.78884 443.84661 126.01091 442.99242 125.99805 441.67578 C 126.01619 440.35589 125.83412 437.86361 125.44922 434.20117 C 125.06754 430.56973 124.7297 428.11148 124.4375 426.82422 C 124.14204 425.50589 123.74623 424.71457 123.24805 424.45312 C 122.87196 424.23383 122.25283 424.13814 121.39062 424.16406 z M 254.18164 434.03906 L 253.81055 434.07812 C 253.66987 434.79108 253.40166 435.39172 253.03125 435.90039 L 254.47852 435.74805 L 254.18164 434.03906 z M 223.2207 437.24609 L 222.84961 437.28516 C 222.67706 438.02202 222.36934 438.64211 221.95312 439.16602 L 223.52148 439.00195 L 223.2207 437.24609 z "
       id="rect823-7-2"
       transform="scale(0.26458333)"
       inkscape:export-filename="/home/mbernardi/documents/repos/javascript/dso-guide/app/www/resources/logo.png"
       inkscape:export-xdpi="490.82477"
       inkscape:export-ydpi="490.82477" />
    <rect
       style="opacity:1;vector-effect:none;fill:#eeeeee;fill-opacity:1;stroke:none;stroke-width:1;stroke-linecap:butt;stroke-linejoin:miter;stroke-miterlimit:4;stroke-dasharray:none;stroke-dashoffset:3.77952766;stroke-opacity:1;paint-order:markers fill stroke"
       id="rect823-5-36-3"
       width="13.373698"
       height="4.2885075"
       x="51.829617"
       y="99.150696"
       transform="rotate(-6.0000001)"
       inkscape:export-filename="/home/mbernardi/documents/repos/javascript/dso-guide/app/www/resources/logo.png"
       inkscape:export-xdpi="490.82477"
       inkscape:export-ydpi="490.82477" />
    <path
       style="opacity:1;vector-effect:none;fill:#eeeeee;fill-opacity:1;stroke:none;stroke-width:3.77952766;stroke-linecap:butt;stroke-linejoin:miter;stroke-miterlimit:4;stroke-dasharray:none;stroke-dashoffset:3.77952766;stroke-opacity:1;paint-order:markers fill stroke"
       d="M 511.75781 381.3457 L 327.06055 400.75781 L 333.33203 460.42969 L 343.50781 459.35938 L 339.60547 422.25 L 348.37891 421.32812 C 351.53947 420.996 353.8499 421.30337 355.30859 422.25195 C 356.76347 423.16415 357.78041 424.8027 358.35938 427.16602 C 358.97077 429.48919 359.57019 433.44841 360.1582 439.04297 C 360.7424 444.60119 360.97846 448.59735 360.86719 451.0332 C 360.79223 453.46525 360.13974 455.2982 358.91016 456.5293 C 358.28129 457.13848 357.39936 457.63459 356.26953 458.01953 L 366.13477 456.98242 C 365.96944 456.96056 365.77569 456.95158 365.61914 456.92578 L 365.05273 451.53125 C 367.73143 451.50605 369.79687 451.41756 371.25 451.26562 C 372.26719 451.15885 373.0427 451.02182 373.57617 450.85547 C 374.10582 450.65289 374.51591 450.35273 374.80469 449.95508 C 375.24837 449.28406 375.36022 447.91252 375.14258 445.8418 C 374.97457 444.24336 374.78435 443.12497 374.57031 442.48633 C 374.3926 441.84386 374.08836 441.39901 373.6582 441.15039 C 373.22423 440.86544 372.46901 440.66976 371.39258 440.5625 L 366.93555 440.09375 C 365.52453 439.94811 364.48129 439.10151 363.80469 437.55664 C 363.12809 436.01165 362.62933 433.7137 362.30859 430.66211 C 361.99932 427.71955 362.12309 425.41116 362.68164 423.73633 C 363.23639 422.02521 364.15436 420.79013 365.43359 420.03125 C 366.74916 419.26859 368.47772 418.77411 370.62109 418.54883 C 372.25587 418.37699 373.73958 418.33148 375.07031 418.41211 C 376.43737 418.48871 377.3109 418.58211 377.68945 418.68945 L 378.26172 424.13867 C 377.8908 424.10415 377.21116 424.10138 376.22266 424.13086 C 375.26666 424.12078 374.24415 424.17221 373.1543 424.28711 C 371.99179 424.40931 371.09184 424.59532 370.45703 424.8457 C 369.85473 425.05584 369.42823 425.35805 369.17578 425.75195 C 368.92334 426.14581 368.77251 426.63974 368.72461 427.23242 C 368.71302 427.82132 368.76431 428.66016 368.87891 429.75 C 369.01255 431.02151 369.14752 431.94397 369.28125 432.51758 C 369.4475 433.05105 369.68849 433.43055 370.00586 433.6543 C 370.32321 433.87804 370.81715 434.02887 371.48633 434.10547 L 375.33789 434.58203 C 376.48698 434.68181 377.45249 434.96518 378.23633 435.43359 C 379.05649 435.8983 379.7548 436.77984 380.33203 438.07812 C 380.8691 439.34394 381.27997 441.32146 381.5625 444.00977 C 381.90996 447.31564 381.82923 449.87704 381.32227 451.69336 C 380.85164 453.50582 379.99486 454.78789 378.75195 455.54297 C 378.66855 455.59489 378.56461 455.63612 378.47656 455.68555 L 390.02344 454.47266 C 389.44291 454.30412 388.92766 454.08533 388.49609 453.80469 C 387.07373 452.8523 386.05466 451.17707 385.43555 448.78125 C 384.84894 446.34529 384.25571 442.2758 383.65625 436.57227 C 383.05679 430.86871 382.79215 426.78281 382.86328 424.31445 C 382.96684 421.80593 383.61525 419.93823 384.80859 418.71094 C 386.0382 417.47982 388.23399 416.69938 391.39453 416.36719 C 394.5551 416.03499 396.86357 416.34243 398.32227 417.29102 C 399.78096 418.23958 400.80407 419.93123 401.39062 422.36719 C 402.00974 424.76303 402.61929 428.81404 403.21875 434.51758 C 403.81821 440.22111 404.06653 444.32549 403.96289 446.83398 C 403.89184 449.30237 403.2414 451.15365 402.01172 452.38477 C 401.64766 452.74927 401.18763 453.06781 400.6543 453.35352 L 421.94922 451.11523 C 421.43792 450.96646 420.9733 450.77902 420.5625 450.54492 C 419.0388 449.67664 417.86468 447.94431 417.04102 445.34961 C 416.21353 442.71858 415.51423 438.69612 414.94531 433.2832 C 414.37639 427.87029 414.24436 423.80875 414.54688 421.0957 C 414.84554 418.3463 415.70416 416.38265 417.12305 415.20508 C 418.54191 414.02753 420.77657 413.27776 423.82812 412.95703 C 424.99063 412.83483 426.2927 412.80791 427.73242 412.87695 C 429.20465 412.90593 430.46398 413.01358 431.51172 413.19727 L 432.08984 418.70117 C 429.46854 418.57267 427.52346 418.57349 426.25195 418.70703 C 424.21758 418.92095 422.84208 419.28673 422.125 419.80273 C 421.40792 420.31887 420.99408 421.46397 420.88672 423.23828 C 420.77938 425.01257 420.962 428.13318 421.43164 432.60156 C 421.87838 436.85197 422.26516 439.84181 422.59375 441.57031 C 422.95868 443.29499 423.42845 444.4398 424.00195 445.00391 C 424.57163 445.5317 425.49216 445.72935 426.76367 445.5957 C 427.67187 445.50021 428.40864 445.34897 428.97461 445.14258 L 427.91016 435.00586 L 425.07617 435.30469 L 424.46875 429.5293 L 433.1875 428.61133 L 435.36914 449.37305 C 435.03272 449.5301 434.6599 449.67775 434.26953 449.82031 L 441.48047 449.0625 C 441.4193 449.02981 441.34709 449.00849 441.28906 448.97266 C 440.45744 448.39892 439.82448 447.45421 439.39258 446.14062 C 438.99318 444.7869 438.6619 442.85627 438.39844 440.34961 L 436.45703 421.87695 L 442.61523 421.23047 L 444.24805 436.75977 C 444.49246 439.08478 444.71753 440.71535 444.92578 441.64844 C 445.13416 442.58153 445.39967 443.17744 445.7207 443.4375 C 446.07439 443.65747 446.65 443.72453 447.44922 443.64062 C 448.28477 443.55272 448.84182 443.25651 449.11914 442.75 C 449.43279 442.23956 449.57125 441.45374 449.5332 440.39258 C 449.49138 439.29508 449.32745 437.38477 449.04102 434.66016 L 447.57422 420.70898 L 453.73242 420.0625 L 456.61133 447.47266 L 460.89453 447.02344 L 458.01367 419.61133 L 464.17188 418.96484 L 467.05273 446.375 L 473.70117 445.67578 C 473.50403 445.57869 473.31254 445.47432 473.13672 445.34961 C 472.18083 444.64203 471.41703 443.30752 470.84375 441.34766 C 470.26667 439.35144 469.77176 436.3922 469.35938 432.46875 C 468.95847 428.65425 468.81666 425.72967 468.93359 423.69727 C 469.08301 421.6247 469.5315 420.12844 470.2793 419.20508 C 471.05952 418.24155 472.30233 417.66969 474.00977 417.49023 C 475.35392 417.34888 476.43968 417.52816 477.26367 418.0293 C 478.12399 418.52656 478.77745 419.33863 479.22656 420.4668 L 479.60938 420.42773 L 477.95312 404.67969 L 484.11133 404.03125 L 488.32812 444.13867 L 496.08984 443.32227 C 495.66845 443.19151 495.28546 443.03104 494.94531 442.83594 C 493.57455 442.02503 492.60874 440.69461 492.04688 438.84375 C 491.51756 436.95273 491.0513 434.09966 490.65039 430.28516 C 490.24946 426.47068 490.11378 423.60311 490.24219 421.67969 C 490.4032 419.7161 491.04965 418.17708 492.18164 417.06641 C 493.35002 415.9519 495.27849 415.25521 497.9668 414.97266 C 500.58246 414.69773 502.50104 414.95427 503.72266 415.74414 C 504.98061 416.53016 505.83417 417.83609 506.2832 419.66211 C 506.76474 421.44796 507.21882 424.37457 507.64648 428.44336 L 507.8418 430.29688 L 496.99805 431.4375 C 497.24246 433.76251 497.48588 435.3891 497.73047 436.31836 C 498.00758 437.20746 498.43635 437.78696 499.01562 438.05664 C 499.63123 438.32252 500.64766 438.38139 502.06445 438.23242 C 503.33596 438.09888 505.31968 437.76148 508.01758 437.2207 L 508.52148 442.01758 L 518.0293 441.01758 L 511.75781 381.3457 z M 462.89062 406.26172 L 463.53906 412.41992 L 457.27148 413.07812 L 456.625 406.91992 L 462.89062 406.26172 z M 498.99414 420.17969 C 498.82936 420.1787 498.65282 420.1891 498.46289 420.20898 C 498.46289 420.20898 498.46094 420.20898 498.46094 420.20898 C 497.6628 420.29303 497.09614 420.49949 496.76367 420.82812 C 496.46345 421.11678 496.28815 421.72299 496.23828 422.64648 C 496.22568 423.56614 496.33031 425.07854 496.55078 427.18555 L 501.61914 426.6543 L 501.58789 426.38086 C 501.37397 424.34647 501.16939 422.91784 500.97266 422.09375 C 500.77209 421.23335 500.49434 420.6926 500.14062 420.47266 C 499.87249 420.28045 499.4903 420.18265 498.99414 420.17969 z M 392.77539 422.26758 C 392.54321 422.26443 392.29004 422.278 392.01758 422.30664 C 390.92774 422.42129 390.20733 422.71748 389.85352 423.19531 C 389.53606 423.66944 389.39562 424.78588 389.43359 426.54492 C 389.46761 428.26763 389.72174 431.38007 390.19531 435.88477 C 390.66879 440.38946 391.06985 443.50587 391.39844 445.23438 C 391.72322 446.9265 392.08895 447.97334 392.49805 448.37109 C 392.94348 448.76502 393.71094 448.90361 394.80078 448.78906 C 395.89062 448.67442 396.61298 448.37822 396.9668 447.90039 C 397.32059 447.42243 397.46305 446.32435 397.39258 444.60547 C 397.35856 442.88276 397.1024 439.75001 396.625 435.20898 C 396.1477 430.66793 395.74659 427.55147 395.42188 425.85938 C 395.13345 424.1634 394.76577 423.11856 394.32031 422.72461 C 393.98624 422.42916 393.47194 422.27701 392.77539 422.26758 z M 477.69336 422.75586 C 477.52522 422.75057 477.34698 422.75925 477.15625 422.7793 C 476.3207 422.86723 475.75548 423.09191 475.46289 423.45312 C 475.1703 423.81442 475.03172 424.58189 475.04492 425.75586 C 475.055 426.89347 475.21285 428.91403 475.51758 431.82031 C 475.82304 434.72659 476.09108 436.75521 476.32227 437.90625 C 476.54954 439.02096 476.84365 439.72497 477.20508 440.01758 C 477.56638 440.31014 478.1828 440.4118 479.05469 440.32031 C 479.78126 440.24397 480.30978 440.02336 480.63867 439.6582 C 480.96762 439.29305 481.15727 438.66645 481.21094 437.7793 C 481.2379 436.63785 481.07585 434.39495 480.72461 431.05273 C 480.40005 427.96484 480.11979 425.99331 479.88281 425.13672 C 479.62674 424.09846 479.29998 423.43527 478.90234 423.14648 C 478.60125 422.90267 478.19777 422.77171 477.69336 422.75586 z M 349.78516 427.22656 C 349.54616 427.22414 349.28545 427.23798 349.00391 427.26758 L 346.71484 427.50781 L 349.40625 453.11914 L 351.69531 452.87891 C 352.82149 452.76048 353.56426 452.48061 353.92188 452.03906 C 354.27559 451.5611 354.43657 450.47932 354.40625 448.79297 C 354.37591 447.10659 354.13201 444.08402 353.67383 439.72461 C 353.21564 435.3652 352.82681 432.35701 352.50586 430.70117 C 352.1849 429.04536 351.80294 428.03926 351.36133 427.68164 C 351.02726 427.38618 350.50215 427.23384 349.78516 427.22656 z M 481.96875 441.83203 L 481.58594 441.87109 C 481.40402 443.28597 480.90839 444.33105 480.09766 445.00391 L 482.4707 444.75391 L 481.96875 441.83203 z M 450.24805 445.10938 L 449.86719 445.15039 C 449.61867 446.56771 449.01009 447.63348 448.06641 448.37109 L 450.75781 448.08789 L 450.24805 445.10938 z "
       id="rect823-3-0-7"
       transform="scale(0.26458333)" />
    <rect
       style="opacity:1;vector-effect:none;fill:#eeeeee;fill-opacity:1;stroke:none;stroke-width:1;stroke-linecap:butt;stroke-linejoin:miter;stroke-miterlimit:4;stroke-dasharray:none;stroke-dashoffset:3.77952766;stroke-opacity:1;paint-order:markers fill stroke"
       id="rect823-5-3-6-2"
       width="13.373698"
       height="4.2885075"
       x="110.74045"
       y="108.09321"
       transform="rotate(-6.0000001)" />
  </g>
</svg>
